<?xml version="1.0" standalone="no"?>
<!DOCTYPE svg PUBLIC "-//W3C//DTD SVG 1.1//EN" "http://www.w3.org/Graphics/SVG/1.1/DTD/svg11.dtd" >
<!--
2013-9-30: Created.
-->
<svg>
<metadata>
Created by iconfont
</metadata>
<defs>

<font id="iconfont" horiz-adv-x="1024" >
  <font-face
    font-family="iconfont"
    font-weight="500"
    font-stretch="normal"
    units-per-em="1024"
    ascent="896"
    descent="-128"
  />
    <missing-glyph />
    
    <glyph glyph-name="shanchu" unicode="&#58954;" d="M64.191998 831.623807 64.191998-63.741487l895.14733 0L959.339328 831.623807 64.191998 831.623807zM896.205429-0.28934 128.643915-0.28934 128.643915 767.366318l767.561513 0L896.205429-0.28934zM648.870274 566.422749 330.544275 248.095727c-11.822257-11.822257-11.187807-31.624255 1.410116-44.222177 12.602016-12.602016 32.402991-13.237489 44.226271-1.414209l318.327022 318.327022c11.82021 11.82021 11.181667 31.618115-1.420349 44.220131C680.488389 577.604416 660.690484 578.242959 648.870274 566.422749L648.870274 566.422749zM694.50666 248.092657 376.179638 566.419679c-11.822257 11.822257-31.624255 11.187807-44.222177-1.410116-12.602016-12.602016-13.237489-32.402991-1.414209-44.226271l318.327022-318.327022c11.82021-11.82021 31.618115-11.181667 44.220131 1.420349C705.688327 216.474542 706.32687 236.272447 694.50666 248.092657L694.50666 248.092657z"  horiz-adv-x="1024" />

    
    <glyph glyph-name="iconadd" unicode="&#59107;" d="M856.256 450.24 578.24 450.24 578.24 728.256C578.24 764.864 548.48 768 512 768 475.456 768 445.76 764.864 445.76 728.256l0-278.08L167.744 450.176C131.136 450.24 128 420.608 128 384c0-36.48 3.136-66.176 39.744-66.176l278.08 0 0-278.08C445.76 3.2 475.456 0 512 0c36.48 0 66.24 3.2 66.24 39.744L578.24 317.824l278.08 0C892.864 317.824 896 347.52 896 384 896 420.608 892.864 450.24 856.256 450.24z"  horiz-adv-x="1024" />

    
    <glyph glyph-name="shanchu2" unicode="&#59327;" d="M947.203729 896 76.801342 896c-42.421463 0-76.801346-34.379884-76.801346-76.801346l0-870.402387c0-42.416383 34.379884-76.796267 76.801346-76.796267l870.402387 0c42.393018 0 76.796267 34.379884 76.796267 76.796267L1023.999996 819.198654C1023.999996 861.620117 989.596748 896 947.203729 896zM778.025811 174.311968c16.319854-16.301569 16.319854-42.764825 0-59.061314-16.284299-16.306648-42.733333-16.306648-59.048108 0L509.277988 324.934115 299.60367 115.250654c-16.313759-16.306648-42.759745-16.306648-59.049124 0-16.318838 16.300553-16.318838 42.758729 0 59.061314l209.670255 209.686509L240.555562 593.686001c-16.318838 16.300553-16.318838 42.746539 0 59.065377 16.288363 16.301569 42.734349 16.301569 59.049124 0l209.673303-209.687525L718.977703 652.751378c16.313759 16.301569 42.763809 16.301569 59.048108 0 16.319854-16.318838 16.319854-42.764825 0-59.065377L568.356572 383.999492 778.025811 174.311968z"  horiz-adv-x="1024" />

    
    <glyph glyph-name="shanchu1" unicode="&#59050;" d="M6.564 900.102h1024v-960l-1024 960zM867.364 724.102l-48 48-112-112-112 112-48-48 112-112-112-112 48-48 112 112 112-112 48 48-112 112 112 112z"  horiz-adv-x="1024" />

    
    <glyph glyph-name="wodexiangmu01" unicode="&#58894;" d="M748.8-128 130.56-128c-48.64 0-88.32 39.68-88.32 88.32L42.24 688.64c0 48.64 39.68 88.32 88.32 88.32L748.8 776.96c48.64 0 88.32-39.68 88.32-88.32l0-728.96C836.48-88.32 796.8-128 748.8-128zM130.56 738.56c-27.52 0-49.92-22.4-49.92-49.92l0-728.96c0-27.52 22.4-49.92 49.92-49.92L748.8-90.24c27.52 0 49.92 22.4 49.92 49.92L798.72 688.64c0 27.52-22.4 49.92-49.92 49.92L130.56 738.56zM893.44-8.96l-46.08 0c-10.88 0-19.2 8.32-19.2 19.2s8.32 19.2 19.2 19.2l46.08 0c26.88 0 49.28 22.4 49.28 49.92L942.72 807.68c0 27.52-21.76 49.92-49.28 49.92L275.2 857.6c-26.88 0-49.28-22.4-49.28-49.92l0-18.56c0-10.88-8.32-19.2-19.2-19.2s-19.2 8.32-19.2 19.2l0 18.56C187.52 856.32 226.56 896 275.2 896l618.88 0c48 0 87.68-39.68 87.68-88.32l0-727.68C981.12 30.72 942.08-8.96 893.44-8.96zM817.28 519.04 62.08 519.04c-10.88 0-19.2 8.32-19.2 19.2s8.32 19.2 19.2 19.2l755.2 0c10.88 0 19.2-8.32 19.2-19.2S828.16 519.04 817.28 519.04zM528 613.12 142.08 613.12c-10.88 0-19.2 8.32-19.2 19.2s8.32 19.2 19.2 19.2l385.92 0c10.88 0 19.2-8.32 19.2-19.2S538.88 613.12 528 613.12zM705.92 613.12 583.04 613.12c-10.88 0-19.2 8.32-19.2 19.2s8.32 19.2 19.2 19.2l123.52 0c10.88 0 19.2-8.32 19.2-19.2S716.8 613.12 705.92 613.12z"  horiz-adv-x="1024" />

    
    <glyph glyph-name="wodewendang01" unicode="&#58896;" d="M970.24 509.44 53.76 509.44c-10.88 0-19.2 8.32-19.2 19.2s8.32 19.2 19.2 19.2l916.48 0c10.88 0 19.2-8.32 19.2-19.2S981.12 509.44 970.24 509.44zM415.36 876.8M899.84-128 124.16-128c-49.28 0-89.6 39.68-89.6 88.96L34.56 807.04C34.56 856.32 74.88 896 124.16 896l292.48 0c39.04 0 73.6-26.24 83.84-64 0-0.64 0-1.28 0.64-1.92l7.68-44.8c5.12-28.8 33.92-53.76 63.36-53.76l328.96 0c0 0 0.64 0 0.64 0 49.28-1.92 88.32-42.24 88.32-91.52l0-680.32C989.44-88.32 949.12-128 899.84-128zM124.16 857.6c-28.16 0-51.2-22.4-51.2-50.56l0-846.08c0-27.52 23.04-50.56 51.2-50.56l776.32 0c28.16 0 51.2 22.4 51.2 50.56L951.68 640.64c0 28.16-22.4 51.84-51.2 53.12L571.52 693.76c-47.36 0-92.8 38.4-101.12 85.76l-7.68 43.52C456.96 843.52 438.4 857.6 416.64 857.6L124.16 857.6zM830.08 348.16 363.52 348.16c-10.88 0-19.2 8.32-19.2 19.2 0 10.88 8.32 19.2 19.2 19.2l466.56 0c10.88 0 19.2-8.32 19.2-19.2C849.28 356.48 840.32 348.16 830.08 348.16zM830.08 177.92 363.52 177.92c-10.88 0-19.2 8.32-19.2 19.2s8.32 19.2 19.2 19.2l466.56 0c10.88 0 19.2-8.32 19.2-19.2S840.32 177.92 830.08 177.92zM830.08 7.68 363.52 7.68c-10.88 0-19.2 8.32-19.2 19.2s8.32 19.2 19.2 19.2l466.56 0c10.88 0 19.2-8.32 19.2-19.2S840.32 7.68 830.08 7.68zM236.8 305.28c-34.56 0-62.08 27.52-62.08 62.08s28.16 62.08 62.08 62.08c34.56 0 62.08-27.52 62.08-62.08S271.36 305.28 236.8 305.28zM236.8 391.04c-12.8 0-23.68-10.24-23.68-23.68s10.88-23.68 23.68-23.68 23.68 10.24 23.68 23.68S250.24 391.04 236.8 391.04zM236.8 135.04c-34.56 0-62.08 27.52-62.08 62.08s28.16 62.08 62.08 62.08c34.56 0 62.08-27.52 62.08-62.08S271.36 135.04 236.8 135.04zM236.8 220.16c-12.8 0-23.68-10.24-23.68-23.68s10.88-23.68 23.68-23.68 23.68 10.24 23.68 23.68S250.24 220.16 236.8 220.16zM236.8-35.2c-34.56 0-62.08 27.52-62.08 62.08s28.16 62.08 62.08 62.08c34.56 0 62.08-27.52 62.08-62.08S271.36-35.2 236.8-35.2zM236.8 49.92c-12.8 0-23.68-10.24-23.68-23.68s10.88-23.68 23.68-23.68 23.68 10.24 23.68 23.68S250.24 49.92 236.8 49.92z"  horiz-adv-x="1024" />

    
    <glyph glyph-name="kaoqinzhongxin01" unicode="&#58945;" d="M957.010752-116.48l-889.6 0c-19.84 0-37.76 8.32-50.56 23.04-14.08 17.28-19.84 40.96-15.36 65.28 0 0 0 0.64 0 0.64l80 368c6.4 33.28 38.4 59.52 73.6 59.52l87.04 0c10.88 0 19.2-8.32 19.2-19.2 0-10.88-8.32-19.2-19.2-19.2L155.730752 361.6c-16.64 0-33.28-12.8-36.48-28.16 0 0 0-0.64 0-0.64L39.250752-35.2c-2.56-12.8 0.64-24.96 7.04-33.28 5.12-6.4 12.16-9.6 21.12-9.6l889.6 0c8.32 0 16 3.2 21.12 9.6 7.04 8.32 9.6 20.48 7.04 33.28L905.170752 332.8c0 0 0 0.64 0 0.64-2.56 15.36-19.2 28.16-36.48 28.16l-83.2 0c-10.88 0-19.2 8.32-19.2 19.2 0 10.88 8.32 19.2 19.2 19.2l83.2 0c35.2 0 67.84-26.24 73.6-59.52l80-368c0 0 0-0.64 0-0.64 4.48-24.32-1.28-48-15.36-65.28C994.770752-108.16 976.850752-116.48 957.010752-116.48zM512.210752 110.72C512.210752 110.72 512.210752 110.72 512.210752 110.72c-5.76 0-10.88 2.56-14.08 6.4-10.88 12.16-272.64 307.2-272.64 484.48C224.850752 757.76 354.130752 884.48 512.210752 884.48s287.36-127.36 287.36-283.52c0-188.8-261.76-472.96-273.28-484.48C522.450752 112.64 517.330752 110.72 512.210752 110.72zM512.210752 846.08C375.250752 846.08 263.250752 736.64 263.250752 601.6c0-140.16 194.56-378.24 248.96-442.24 55.04 62.08 248.32 293.12 248.32 442.24C761.170752 736.64 649.170752 846.08 512.210752 846.08zM512.210752 440.32c-88.96 0-161.28 71.04-161.28 158.72S423.250752 758.4 512.210752 758.4s161.28-71.04 161.28-158.72S601.170752 440.32 512.210752 440.32zM512.210752 720c-67.84 0-122.88-54.4-122.88-120.32S444.370752 478.72 512.210752 478.72c67.84 0 122.88 54.4 122.88 120.32S580.050752 720 512.210752 720z"  horiz-adv-x="1025" />

    
    <glyph glyph-name="wodericheng01" unicode="&#58946;" d="M964.48-69.12 59.52-69.12c-32.64 0-59.52 26.24-59.52 58.88L0 670.08c0 32 26.88 58.88 59.52 58.88l128 0c10.88 0 19.2-8.32 19.2-19.2s-8.32-19.2-19.2-19.2l-128 0c-11.52 0-21.12-8.96-21.12-20.48l0-680.32c0-10.88 9.6-20.48 21.12-20.48l905.6 0c11.52 0 21.12 8.96 21.12 20.48L986.24 670.08c0 10.88-9.6 20.48-21.12 20.48L851.2 690.56c-10.88 0-19.2 8.32-19.2 19.2s8.32 19.2 19.2 19.2l113.28 0c32.64 0 59.52-26.24 59.52-58.88l0-680.32C1024-42.88 997.12-69.12 964.48-69.12zM668.8 690.56 347.52 690.56c-10.88 0-19.2 8.32-19.2 19.2s8.32 19.2 19.2 19.2l321.28 0c10.88 0 19.2-8.32 19.2-19.2S679.68 690.56 668.8 690.56zM271.36 567.68c-10.88 0-19.2 8.32-19.2 19.2L252.16 817.92c0 10.88 8.32 19.2 19.2 19.2s19.2-8.32 19.2-19.2l0-231.04C290.56 576 281.6 567.68 271.36 567.68zM760.32 567.68c-10.88 0-19.2 8.32-19.2 19.2L741.12 817.92c0 10.88 8.32 19.2 19.2 19.2s19.2-8.32 19.2-19.2l0-231.04C779.52 576 770.56 567.68 760.32 567.68zM1004.8 491.52 19.2 491.52c-10.88 0-19.2 8.32-19.2 19.2s8.32 19.2 19.2 19.2l985.6 0c10.88 0 19.2-8.32 19.2-19.2S1015.68 491.52 1004.8 491.52zM881.28 312.32 142.72 312.32c-10.88 0-19.2 8.32-19.2 19.2s8.32 19.2 19.2 19.2l738.56 0c10.88 0 19.2-8.32 19.2-19.2S891.52 312.32 881.28 312.32zM881.28 120.96 142.72 120.96c-10.88 0-19.2 8.32-19.2 19.2s8.32 19.2 19.2 19.2l738.56 0c10.88 0 19.2-8.32 19.2-19.2S891.52 120.96 881.28 120.96z"  horiz-adv-x="1024" />

    
    <glyph glyph-name="neibuyoujian01" unicode="&#58947;" d="M972.8-53.76 51.2-53.76c-28.16 0-51.2 22.4-51.2 50.56L0 771.84c0 27.52 23.04 50.56 51.2 50.56l921.6 0c28.16 0 51.2-22.4 51.2-50.56l0-136.96c0-10.88-8.32-19.2-19.2-19.2s-19.2 8.32-19.2 19.2L985.6 771.84c0 6.4-5.76 12.16-12.8 12.16L51.2 784c-7.04 0-12.8-5.76-12.8-12.16l0-775.68c0-6.4 5.76-12.16 12.8-12.16l921.6 0c7.04 0 12.8 5.76 12.8 12.16L985.6 487.68c0 10.88 8.32 19.2 19.2 19.2s19.2-8.32 19.2-19.2l0-491.52C1024-31.36 1000.96-53.76 972.8-53.76zM515.2 254.08c-12.8 0-24.96 4.48-35.2 13.44L76.16 584.96c-8.32 6.4-9.6 18.56-3.2 26.88 6.4 8.32 18.56 9.6 26.88 3.2l405.12-317.44c0.64-0.64 1.28-0.64 1.28-1.28 5.12-5.12 13.44-5.12 17.92 0 0.64 0.64 1.28 1.28 1.92 1.92l469.76 345.6c8.32 6.4 20.48 4.48 26.88-3.84 6.4-8.32 4.48-20.48-3.84-26.88L550.4 267.52C540.16 258.56 528 254.08 515.2 254.08z"  horiz-adv-x="1027" />

    
    <glyph glyph-name="chakanxinwen01" unicode="&#58948;" d="M793.122981-128 111.940373-128C66.146584-128 28.621118-90.474534 28.621118-44.680745L28.621118 806.320497C28.621118 852.750311 66.146584 889.639752 111.940373 889.639752l681.818634 0c45.793789 0 83.319255-37.525466 83.319255-83.319255l0-851.001242C876.442236-90.474534 839.552795-128 793.122981-128zM111.940373 851.478261c-24.804969 0-45.157764-20.352795-45.157764-45.157764l0-851.001242c0-24.804969 20.352795-45.157764 45.157764-45.157764l681.818634 0c24.804969 0 45.157764 20.352795 45.157764 45.157764L838.91677 806.320497c0 24.804969-20.352795 45.157764-45.157764 45.157764L111.940373 851.478261zM909.515528-128 227.696894-128c-10.812422 0-19.080745 8.268323-19.080745 19.080745s8.268323 19.080745 19.080745 19.080745l681.818634 0c24.804969 0 45.157764 20.352795 45.157764 45.157764l0 674.186335c0 10.812422 8.268323 19.080745 19.080745 19.080745s19.080745-8.268323 19.080745-19.080745l0-674.186335C992.834783-90.474534 955.309317-128 909.515528-128zM737.152795 403.71677 167.910559 403.71677c-30.529193 0-55.334161 24.804969-55.334161 55.334161L112.576398 695.652174c0 30.529193 24.804969 55.334161 55.334161 55.334161l569.878261 0c30.529193 0 55.334161-24.804969 55.334161-55.334161l0-237.237267C792.486957 428.521739 767.681988 403.71677 737.152795 403.71677zM167.910559 712.824845c-9.540373 0-17.172671-7.632298-17.172671-17.172671l0-237.237267c0-9.540373 7.632298-17.172671 17.172671-17.172671l569.878261 0c9.540373 0 17.172671 7.632298 17.172671 17.172671L754.961491 695.652174c0 9.540373-7.632298 17.172671-17.172671 17.172671L167.910559 712.824845zM515.816149 224.357764 131.021118 224.357764c-10.812422 0-19.080745 8.268323-19.080745 19.080745s8.268323 19.080745 19.080745 19.080745l384.795031 0c10.812422 0 19.080745-8.268323 19.080745-19.080745S526.628571 224.357764 515.816149 224.357764zM772.770186 87.612422 132.293168 87.612422c-10.812422 0-19.080745 8.268323-19.080745 19.080745s8.268323 19.080745 19.080745 19.080745L772.770186 125.773913c10.812422 0 19.080745-8.268323 19.080745-19.080745S783.582609 87.612422 772.770186 87.612422z"  horiz-adv-x="1024" />

    
    <glyph glyph-name="user" unicode="&#58897;" d="M944.401-128h-49.417c0 203.871-164.658 357.633-382.984 357.633s-382.984-153.737-382.984-357.633h-49.417c0 232.064 185.883 407.050 432.401 407.050s432.401-174.987 432.401-407.050zM512 229.633c-183.931 0-333.567 149.463-333.567 333.196s149.635 333.171 333.567 333.171 333.567-149.463 333.567-333.171-149.635-333.196-333.567-333.196zM512 846.583c-156.677 0-284.149-127.299-284.149-283.754s127.472-283.754 284.149-283.754 284.149 127.274 284.149 283.754-127.472 283.754-284.149 283.754z"  horiz-adv-x="1024" />

    
    <glyph glyph-name="tongxunlu01" unicode="&#58949;" d="M895.104895 896 212.779221 896C142.193806 896 84.907093 838.713287 84.907093 768.127872L42.965035 768.127872c-23.528472 0-42.965035-19.436563-42.965035-42.965035l0-127.872128c0-23.528472 19.436563-42.965035 42.965035-42.965035l42.965035 0 0-63.424575L42.965035 490.901099c-23.528472 0-42.965035-19.436563-42.965035-42.965035l0-127.872128c0-23.528472 19.436563-42.965035 42.965035-42.965035l42.965035 0 0-63.424575L42.965035 213.674326c-23.528472 0-42.965035-19.436563-42.965035-42.965035l0-127.872128c0-23.528472 19.436563-42.965035 42.965035-42.965035l42.965035 0c0-70.585415 57.286713-127.872128 127.872128-127.872128l682.325674 0c70.585415 0 127.872128 57.286713 127.872128 127.872128l0 767.232767C1022.977023 838.713287 965.69031 896 895.104895 896L895.104895 896zM958.529471 22.377622c0-47.056943-37.85015-84.907093-84.907093-84.907093L234.261738-62.529471c-47.056943 0-84.907093 37.85015-84.907093 84.907093L149.354645 746.645355c0 47.056943 37.85015 84.907093 84.907093 84.907093l639.360639 0c47.056943 0 84.907093-37.85015 84.907093-84.907093L958.529471 22.377622 958.529471 22.377622zM668.003996 267.892108c73.654346 40.919081 122.757243 119.688312 122.757243 208.687313 0 132.987013-108.435564 240.3996-242.445554 240.3996C414.305694 718.001998 306.893107 609.566434 306.893107 477.602398c0-90.021978 49.102897-167.768232 122.757243-208.687313-79.792208-29.666334-145.262737-90.021978-182.08991-164.699301l6.137862 0c0-14.321678 12.275724-26.597403 26.597403-26.597403 15.344655 0 26.597403 12.275724 26.597403 26.597403l2.045954 0c50.125874 79.792208 138.101898 134.00999 240.3996 134.00999 101.274725 0 190.273726-53.194805 240.3996-134.00999l2.045954 0c0-14.321678 12.275724-26.597403 26.597403-26.597403 15.344655 0 26.597403 12.275724 26.597403 26.597403l6.137862 0C812.243756 178.893107 747.796204 238.225774 668.003996 267.892108L668.003996 267.892108zM360.087912 477.602398c0 103.320679 83.884116 187.204795 188.227772 187.204795 104.343656 0 188.227772-83.884116 188.227772-187.204795 0-103.320679-83.884116-187.204795-188.227772-187.204795C443.972028 290.397602 360.087912 374.281718 360.087912 477.602398L360.087912 477.602398z"  horiz-adv-x="1024" />

    
    <glyph glyph-name="kongjian-bumenxuanze" unicode="&#58905;" d="M512 822.857143v-146.285714h146.285714V822.857143H512z m585.142857-658.285714h73.142857v-292.571429h-292.571428v292.571429h146.285714V347.428571c0 21.942857-14.628571 36.571429-36.571429 36.571429h-365.714285v-219.428571h-73.142857V384h-365.714286c-21.942857 0-36.571429-14.628571-36.571429-36.571429V164.571429h146.285715v-292.571429H0v292.571429h73.142857V347.428571C73.142857 405.942857 124.342857 457.142857 182.857143 457.142857h365.714286V603.428571h73.142857v-146.285714h365.714285c58.514286 0 109.714286-51.2 109.714286-109.714286V164.571429zM438.857143 896h292.571428v-292.571429H438.857143V896z m0-731.428571h292.571428v-292.571429H438.857143v292.571429z m73.142857-73.142858v-146.285714h146.285714v146.285714H512z m-438.857143-146.285714h146.285714v146.285714H73.142857v-146.285714z m877.714286 0h146.285714v146.285714h-146.285714v-146.285714z"  horiz-adv-x="1170" />

    
    <glyph glyph-name="shanchu3" unicode="&#58900;" d="M819.7 629.1c0 53.1-43 96.1-96.1 96.1-4.1 0-8.1-0.3-12-0.7v0.7H159.1l660.6-660.6V617.1h-0.7c0.4 3.9 0.7 7.9 0.7 12zM691.9 473.6c4.7-4.7 4.7-12.3 0-17-4.7-4.7-12.3-4.7-17 0L615.5 516l-59.4-59.4c-4.7-4.7-12.3-4.7-17 0-4.7 4.7-4.7 12.3 0 17l59.4 59.4-59.4 59.4c-4.7 4.7-4.7 12.3 0 17 4.7 4.7 12.3 4.7 17 0l59.4-59.4 59.4 59.4c4.7 4.7 12.3 4.7 17 0 4.7-4.7 4.7-12.3 0-17L632.5 533l59.4-59.4z"  horiz-adv-x="1024" />

    
    <glyph glyph-name="users" unicode="&#58917;" d="M539.1 316.6c92.7 44.6 157 139.1 157 248.7 0 152.2-123.8 276-276 276s-276-123.8-276-276c0-113 68.4-210.3 165.9-252.9C153.5 261 40.2 113.9 40.2-59.4c0-13.3 10.8-24 24-24s24 10.8 24 24C88.2 129.9 242.3 284 431.7 284s343.4-154.1 343.4-343.4c0-13.3 10.8-24 24-24s24 10.8 24 24c0 178.5-120.3 329.2-284 376zM192 565.3c0 125.7 102.3 228 228 228s228-102.3 228-228-102.3-228-228-228-228 102.3-228 228zM800.1 341.1c61.5 30.2 104.1 93.3 104.1 166.4 0 102.2-83.2 185.4-185.4 185.4-8.8 0-16-7.2-16-16s7.2-16 16-16c84.6 0 153.4-68.8 153.4-153.4s-68.8-153.4-153.4-153.4c-8.8 0-16-7.2-16-16s7.2-16 16-16c127.3 0 230.9-103.6 230.9-230.9 0-8.8 7.2-16 16-16s16 7.2 16 16c0.1 116.6-76.3 215.6-181.6 249.9z"  horiz-adv-x="1024" />

    
    <glyph glyph-name="tianjiabumen" unicode="&#58895;" d="M449.105301 393.156193h521.168744-521.168744zM449.105301-97.34966h521.168744-521.168744zM449.105301-66.661666h521.168744-521.168744zM449.105301-36.011326h521.168744-521.168744zM449.105301-5.335883h521.168744-521.168744zM449.105301 25.314457h521.168744-521.168744zM449.105301 55.977349h521.168744-521.168744zM449.105301 86.652792h521.168744-521.168744zM449.105301 117.303132h521.168744-521.168744zM449.105301 147.853061h521.168744-521.168744zM449.105301 178.515953h521.168744-521.168744zM449.105301 209.191395h521.168744-521.168744zM449.105301 239.841736h521.168744-521.168744zM449.105301 270.492076h521.168744-521.168744zM449.105301 301.18007h521.168744-521.168744zM449.105301 331.83041h521.168744-521.168744zM449.105301 362.505853h521.168744-521.168744zM449.105301-128h521.168744-521.168744zM449.105301 393.156193v-521.156193 521.156193zM939.623705 393.156193v-521.156193 521.156193zM908.935711 393.156193v-521.156193 521.156193zM878.285371 393.156193v-521.156193 521.156193zM847.597377 393.156193v-521.156193 521.156193zM816.947037 393.156193v-521.156193 521.156193zM786.296697 393.156193v-521.156193 521.156193zM755.621254 393.156193v-521.156193 521.156193zM724.970914 393.156193v-521.156193 521.156193zM694.408433 393.156193v-521.156193 521.156193zM663.758093 393.156193v-521.156193 521.156193zM633.08265 393.156193v-521.156193 521.156193zM602.43231 393.156193v-521.156193 521.156193zM571.78197 393.156193v-521.156193 521.156193zM541.093976 393.156193v-521.156193 521.156193zM510.443635 393.156193v-521.156193 521.156193zM479.755641 393.156193v-521.156193 521.156193zM970.274045 393.156193v-521.156193 521.156193zM786.735993 470.88656h-1.016657v1.029209H516.493375v105.042054h81.583624a68.793822 68.793822 0 0 1 68.643207 68.806374V827.193626A68.806374 68.806374 0 0 1 598.076999 896H383.097873a68.806374 68.806374 0 0 1-68.643206-68.806374v-181.429429a68.806374 68.806374 0 0 1 68.643206-68.806374h86.717118v-105.042054H188.301281v-140.173218H122.369161A68.806374 68.806374 0 0 1 53.738506 262.936177v-181.429429a68.806374 68.806374 0 0 1 68.643206-68.806374h215.01678a68.806374 68.806374 0 0 1 68.655758 68.806374V262.936177a68.806374 68.806374 0 0 1-68.655758 68.806374h-101.402169v89.11442h502.053073v-0.125513h48.686597z m-449.337501-189.838818a18.111565 18.111565 0 0 0 18.073911-18.111565v-181.429429a18.111565 18.111565 0 0 0-18.073911-18.111565H122.369161a18.099013 18.099013 0 0 0-18.061359 18.111565V262.936177a18.099013 18.099013 0 0 0 18.061359 18.111565z m45.762138 346.60489a18.111565 18.111565 0 0 0-18.149219 18.111565V827.193626A18.099013 18.099013 0 0 0 383.072771 845.29264h215.004228a18.111565 18.111565 0 0 0 18.06136-18.099014v-181.429429a18.111565 18.111565 0 0 0-18.06136-18.111565zM864.114923 218.266005h-80.642275v80.642275a38.30665 38.30665 0 1 1-76.563094 0v-80.642275h-80.705031a38.30665 38.30665 0 0 1 0-76.563094h80.642275v-80.667378a38.30665 38.30665 0 0 1 76.563094 0v80.617173h80.642274a38.30665 38.30665 0 1 1 0 76.563093z"  horiz-adv-x="1024" />

    
    <glyph glyph-name="xuanbumen" unicode="&#58992;" d="M70.592 409.088h158.208v-69.504H70.592v-409.664H0V896h70.592v-486.912zM1024 649.088v-479.872c0-40.32-35.968-73.088-79.808-73.088H327.04c-43.776 0-79.808 32.768-79.808 73.088V649.088c0 40.32 36.032 73.024 79.808 73.024h617.216c43.84 0 79.808-32.64 79.808-72.96z m-576.96-128H376.448v-208.64h70.592v208.64z m141.248 0H517.696v-208.64h70.592v208.64z m141.184 0h-70.592v-208.64h70.592v208.64z m141.312 0h-70.656v-208.64h70.656v208.64z"  horiz-adv-x="1024" />

    
    <glyph glyph-name="xuanduobumen" unicode="&#59003;" d="M764.3136 673.109333h-63.488v49.015467h-63.351467v-49.015467h-63.488v49.015467H510.634667v-49.015467h-116.053334V780.4928c0 36.727467 32.290133 66.56 71.68 66.56h554.3936c39.3216 0 71.68-29.832533 71.68-66.56v-437.589333c0-36.727467-32.3584-66.628267-71.68-66.628267h-34.747733V536.507733a135.850667 135.850667 0 0 1-39.458133 96.0512h8.192V722.1248h-63.419734v-55.7056a138.24 138.24 0 0 1-42.461866 6.690133h-20.957867v49.015467h-63.488v-49.015467zM63.419733 328.226133h142.1312v-63.419733H63.419733v-373.418667H0V772.096h63.488v-443.938133zM919.825067 547.157333v-437.589333c0-36.727467-32.3584-66.628267-71.68-66.628267H293.6832c-39.3216 0-71.68 29.9008-71.68 66.628267V547.157333c0 36.727467 32.3584 66.56 71.68 66.56h554.461867c39.3216 0 71.68-29.832533 71.68-66.56z m-518.280534-116.736h-63.419733v-190.2592h63.488V430.421333z m126.907734 0h-63.488v-190.2592h63.488V430.421333z m126.7712 0H591.872v-190.2592h63.488V430.421333z m126.976 0h-63.488v-190.2592h63.488V430.421333z"  horiz-adv-x="1092" />

    
    <glyph glyph-name="zhankai" unicode="&#59037;" d="M409.6 896v-1024c112.64 0 204.8 92.16 204.8 204.8V691.2C614.4 803.84 522.24 896 409.6 896z m71.68-860.16H450.56V752.64h30.72v-716.8z m71.68 0h-30.72V752.64h30.72v-716.8z"  horiz-adv-x="1024" />

    
    <glyph glyph-name="select" unicode="&#58960;" d="M714.2309 688.649331a358.255878 358.255878 0 0 1-506.857192 0A358.255878 358.255878 0 0 1 460.802304 76.836862a357.55191 357.55191 0 0 1 253.428596 104.955277A357.039933 357.039933 0 0 1 819.186177 435.220735a357.039933 357.039933 0 0 1-104.955277 253.428596zM0.023039 435.220735a460.779265 460.779265 0 1 0 921.55853 0A460.779265 460.779265 0 0 0 0.023039 435.220735z m1006.22672-545.575449a59.837307 59.837307 0 0 0-84.860182 0l-84.732187 84.860181a59.901304 59.901304 0 1 0 84.860182 84.860182l84.860181-84.732188a60.029299 60.029299 0 0 0-0.127994-84.988175z"  horiz-adv-x="1024" />

    
    <glyph glyph-name="add" unicode="&#58964;" d="M864 896h-704C70.4 896 0 825.6 0 736v-704C0-57.60000000000002 70.4-128 160-128h704c89.6 0 160 70.4 160 160v704C1024 825.6 953.6 896 864 896zM960 32c0-54.4-41.6-96-96-96h-704c-54.4 0-96 41.6-96 96v704C64 790.4 105.6 832 160 832h704c54.4 0 96-41.6 96-96v-704zM768 416H544V640c0 19.2-12.8 32-32 32s-32-12.8-32-32v-224H256c-19.2 0-32-12.8-32-32s12.8-32 32-32h224V128c0-19.2 12.8-32 32-32s32 12.8 32 32V352H768c19.2 0 32 12.8 32 32s-12.8 32-32 32z"  horiz-adv-x="1024" />

    
    <glyph glyph-name="zhankaidaohang" unicode="&#58909;" d="M541.724444 896h-227.555555l-2.56-1024h230.115555a170.666667 170.666667 0 0 1 170.666667 170.666667V725.333333a170.666667 170.666667 0 0 1-170.666667 170.666667z m21.902223-526.222222l-155.875556-150.471111a21.048889 21.048889 0 0 0-30.151111 0 21.617778 21.617778 0 0 0 0 30.151111l139.662222 134.257778-138.808889 135.111111a21.617778 21.617778 0 0 0 0 30.151111 21.048889 21.048889 0 0 0 30.151111 0l155.875556-149.617778a21.617778 21.617778 0 0 0 0-31.004444z"  horiz-adv-x="1024" />

    
    <glyph glyph-name="shanchu4" unicode="&#58941;" d="M946.14186667 817.26577778v-865.92474075H80.21712592V817.26577778h865.92474075m-18.6898963 64.07964444H98.90702222c-49.75881482 0-82.8909037-33.13208889-82.8909037-82.8909037v-828.54494815c0-49.75881482 33.13208889-82.8909037 82.8909037-82.8909037h828.54494815c49.75881482 0 82.8909037 33.13208889 82.89090371 82.8909037V798.57588148c0 49.63745185-33.13208889 82.76954075-82.89090371 82.76954074z m0 0M637.15176297 480.11946667v-271.24622222c3.39816297-13.71401482-6.91768889-24.02986667-20.63170371-27.42802963H403.64942222c-13.71401482 0-24.02986667 10.31585185-27.42802963 20.6317037V480.11946667h-48.05973333V181.32385184999998c-3.39816297-27.42802963 13.71401482-51.4578963 41.26340741-54.97742222h267.84805925c27.42802963 0 51.4578963 20.6317037 51.4578963 51.45789629v302.19377778h-51.57925925z m0 0M431.19881482 452.69143703v-216.39016295h51.4578963V452.69143703H431.19881482z m178.52491852 106.43531852v54.97742223c0 20.6317037 0 27.42802963-27.42802964 27.42802963H431.19881482c-27.42802963 0-27.42802963-10.31585185-27.42802963-27.42802963v-54.97742223h-103.03715555V504.14933333H712.76088889v54.97742222h-103.03715555z m-51.4578963 0h-103.03715555v27.42802963h103.03715555v-27.42802963z m-103.03715555 27.42802963c0 10.31585185 0 0 0 0z m103.03715555 0s0 10.31585185 0 0z m-24.02986667-133.86334815v-216.39016295h51.4578963V452.69143703h-51.4578963z m0 0"  horiz-adv-x="1024" />

    
    <glyph glyph-name="biaodan" unicode="&#58887;" d="M946.545242 191.247059H29.282184c-9.758118 0-29.274353 9.276235-29.274353 27.828706V877.447529C9.765948 877.447529 19.524066 896 29.282184 896h917.263058c19.516235 0 29.274353-9.276235 29.274353-27.828706v-658.371765c0-18.552471-9.758118-18.552471-29.274353-18.55247zM58.556536 237.628235H927.029007V840.342588H58.556536V237.628235zM1065.630419-79.811765H136.320301c-9.276235 0-27.888941 9.517176-27.888941 28.55153 0 19.094588 9.276235 28.611765 27.888941 28.611764h901.481412V596.389647c0 9.517176 9.276235 28.551529 27.828706 28.551529 9.336471 0 18.612706-9.517176 18.612706-28.551529v-647.649882c0-9.517176-9.276235-28.551529-18.612706-28.55153zM29.282184 679.152941C19.524066 679.152941 0.007831 685.537882 0.007831 698.307765V876.845176C-0.233111 888.410353 4.826654 896 29.282184 896h917.263058c19.516235 0 29.274353-6.384941 29.274353-19.154824v-178.537411c0-12.769882-9.758118-19.154824-29.274353-19.154824H29.282184z m809.321411-319.186823l-194.56 1.566117v-59.392l195.162353-2.469647-0.602353 60.29553z"  horiz-adv-x="1084" />

    
    <glyph glyph-name="shanchu5" unicode="&#58943;" d="M864.768 245.76H198.336c3.648-68.672 2.112-151.296-53.568-200.32-77.952-68.608-51.648-143.68 3.584-173.44h113.152C272.64-112.448 334.08-23.488 352 66.368c2.816 18.688 4.48 31.04 4.48 31.04-0.704-10.24-2.368-20.608-4.48-31.04-8.576-57.152-27.84-174.976-41.856-194.368h81.92c11.072 15.552 72.448 104.512 90.432 194.368 2.816 18.688 4.544 31.04 4.544 31.04-0.832-10.24-2.432-20.608-4.48-31.04-8.704-57.152-27.904-174.976-41.984-194.368h103.232c11.136 15.552 72.448 104.512 90.496 194.368 2.816 18.688 4.48 31.04 4.48 31.04-0.768-10.24-2.432-20.608-4.48-31.04-8.64-57.152-27.84-174.976-41.92-194.368h103.616c11.136 15.552 72.448 104.512 90.496 194.368 2.816 18.688 4.48 31.04 4.48 31.04-0.768-10.24-2.432-20.608-4.48-31.04-8.64-57.152-27.904-174.976-41.92-194.368h104.256s68.672 25.28 57.984 106.688c-15.36 116.032-21.44 180.608-42.048 267.072M161.92 311.68H885.12c23.872 0 35.136 18.048 24.96 40.192L824.768 537.6c-10.24 22.144-38.144 40.32-62.016 40.32H613.184V849.728A44.16 44.16 0 0 1 569.6 894.272h-87.04a44.16 44.16 0 0 1-43.52-44.48v-272H284.416c-23.936 0-51.84-18.112-62.08-40.256L137.088 352c-10.24-22.208 1.024-40.32 24.96-40.32"  horiz-adv-x="1024" />

    
    <glyph glyph-name="zhankai1" unicode="&#58889;" d="M216.837815 91.052112V676.947888h585.900878v-585.890674H216.837815z m551.436421 551.431319H251.29717v-516.982168h516.977066V642.483431z m-275.715659-137.85783h33.382819v-103.38827h103.403576v-33.393024h-103.403576v-103.398474h-33.382819v103.398474H389.160102v33.393024h103.398475V504.625601zM494.482056 852.632437h30.612397V896h-30.612397M494.482056 810.540391h30.612397V768.448344h-30.612397M494.482056 721.254231h30.612397v-44.306343h-30.612397zM494.900425 47.684549h30.612397v43.367563h-30.612397M494.900425 5.592502h30.612397v-42.092046h-30.612397M494.900425-83.693657h30.612397v-44.306343h-30.612397zM846.106257 364.527964l0.147959 30.612398-43.367563 0.214286-0.14796-30.612397M888.198303 364.318779l0.14796 30.612398 42.092046-0.209185-0.14796-30.612397M1021.918357 394.267908l-0.153062-30.612397-44.306343 0.214287 0.153062 30.617499z"  horiz-adv-x="1025" />

    
    <glyph glyph-name="ptshangyouzhankai" unicode="&#58890;" d="M217.6 88.22272V676.17792h587.96032v-587.95008H217.6z m553.37472 553.3696H252.18048v-518.79936h518.79424V641.59232z m-276.6848-138.3424h33.50016v-103.75168h103.76704v-33.5104h-103.76704v-103.76192h-33.50016v103.76192H390.528v33.5104h103.76192V503.24992zM504.11008 852.48h15.1552V896h-15.1552M504.11008 810.24h15.1552V768h-15.1552M504.11008 720.64h15.1552v-44.46208h-15.1552zM849.08032 370.432l0.14848 14.83776-43.52 0.1024-0.14848-14.83776M891.32032 370.3296l0.14848 14.83776 42.24-0.1024-0.14848-14.83264M980.92032 370.11456l0.14848 14.84288 44.46208-0.10752-0.14848-14.83776z"  horiz-adv-x="1025" />

    
    <glyph glyph-name="ptyouzhankai" unicode="&#58891;" d="M217.6 88.22272V676.17792h587.96032v-587.95008H217.6z m553.37472 553.3696H252.18048v-518.79936h518.79424V641.59232z m-276.6848-138.3424h33.50016v-103.75168h103.76704v-33.5104h-103.76704v-103.76192h-33.50016v103.76192H390.528v33.5104h103.76192V503.24992zM849.08032 370.432l0.14848 14.83776-43.52 0.1024-0.14848-14.83776M891.32032 370.3296l0.14848 14.83776 42.24-0.1024-0.14848-14.83264M980.92032 370.11456l0.14848 14.84288 44.46208-0.10752-0.14848-14.83776z"  horiz-adv-x="1025" />

    
    <glyph glyph-name="ptzhankai" unicode="&#58892;" d="M216.837815 91.052112V676.947888h585.900878v-585.890674H216.837815z m551.436421 551.431319H251.29717v-516.982168h516.977066V642.483431z m-275.715659-137.85783h33.382819v-103.38827h103.403576v-33.393024h-103.403576v-103.398474h-33.382819v103.398474H389.160102v33.393024h103.398475V504.625601zM502.34434 852.632437h15.102116V896h-15.102116M502.34434 810.540391h15.102116V768.448344h-15.102116M502.34434 721.254231h15.102116v-44.306343h-15.102116zM502.548422 47.684549h15.102116v43.367563h-15.102116M502.548422 5.592502h15.102116v-42.092046h-15.102116M502.548422-83.693657h15.102116v-44.306343h-15.102116zM846.106257 372.272901l0.147959 14.785788-43.367563 0.102041-0.14796-14.785788M888.198303 372.170859l0.14796 14.785788 42.092046-0.102041-0.14796-14.780686M977.484462 371.956573l0.14796 14.79089 44.306343-0.107144-0.14796-14.785788z"  horiz-adv-x="1025" />

    
    <glyph glyph-name="ptxiayouzhankai" unicode="&#58893;" d="M216.837815 91.052112V676.947888h585.900878v-585.890674H216.837815z m551.436421 551.431319H251.29717v-516.982168h516.977066V642.483431z m-275.715659-137.85783h33.382819v-103.38827h103.403576v-33.393024h-103.403576v-103.398474h-33.382819v103.398474H389.160102v33.393024h103.398475V504.625601zM502.548422 47.684549h15.102116v43.367563h-15.102116M502.548422 5.592502h15.102116v-42.092046h-15.102116M502.548422-83.693657h15.102116v-44.306343h-15.102116zM846.106257 372.272901l0.147959 14.785788-43.367563 0.102041-0.14796-14.785788M888.198303 372.170859l0.14796 14.785788 42.092046-0.102041-0.14796-14.780686M977.484462 371.956573l0.14796 14.79089 44.306343-0.107144-0.14796-14.785788z"  horiz-adv-x="1025" />

    
    <glyph glyph-name="ptshangyoushousuo" unicode="&#58901;" d="M217.6 676.17792v-587.94496h587.96032V676.17792H217.6z m553.37472-553.39008H252.18048V641.59232h518.79424v-518.80448zM504.11008 852.48h15.1552V896h-15.1552M504.11008 810.24h15.1552V768h-15.1552M504.11008 720.64h15.1552v-44.46208h-15.1552zM849.08032 370.432l0.14848 14.83776-43.52 0.1024-0.14848-14.83776M891.32032 370.3296l0.14848 14.83776 42.24-0.1024-0.14848-14.83264M980.92032 370.11456l0.14848 14.84288 44.46208-0.10752-0.14848-14.83776zM391.48032 393.90208h241.03424v-32H391.48032z"  horiz-adv-x="1025" />

    
    <glyph glyph-name="ptxiayoushousuo" unicode="&#58902;" d="M216.836735 676.94898v-585.882653h585.897959V676.94898H216.836735z m551.433673-551.44898H251.295918V642.484694h516.97449v-516.984694zM502.545918 47.683673h15.102041v43.367347h-15.102041M502.545918 5.591837h15.102041v-42.091837h-15.102041M502.545918-83.693878h15.102041v-44.306122h-15.102041zM846.102041 372.27551l0.147959 14.785714-43.367347 0.102041-0.147959-14.785714M888.193878 372.173469l0.147959 14.785715 42.091836-0.102041-0.147959-14.780612M977.479592 371.959184l0.147959 14.790816 44.306122-0.107143-0.147959-14.785714zM390.107143 395.663265h240.188775v-31.887755H390.107143z"  horiz-adv-x="1025" />

    
    <glyph glyph-name="ptshousuo" unicode="&#58903;" d="M216.836735 676.94898v-585.882653h585.897959V676.94898H216.836735z m551.433673-551.44898H251.295918V642.484694h516.97449v-516.984694zM502.341837 852.632653h15.102041V896h-15.102041M502.341837 810.540816h15.102041V768.44898h-15.102041M502.341837 721.255102h15.102041v-44.306122h-15.102041zM502.545918 47.683673h15.102041v43.367347h-15.102041M502.545918 5.591837h15.102041v-42.091837h-15.102041M502.545918-83.693878h15.102041v-44.306122h-15.102041zM846.102041 372.27551l0.147959 14.785714-43.367347 0.102041-0.147959-14.785714M888.193878 372.173469l0.147959 14.785715 42.091836-0.102041-0.147959-14.780612M977.479592 371.959184l0.147959 14.790816 44.306122-0.107143-0.147959-14.785714zM390.107143 395.663265h240.188775v-31.887755H390.107143z"  horiz-adv-x="1025" />

    
    <glyph glyph-name="zhankai2" unicode="&#58976;" d="M541.73184 896H314.16832l-2.56-1024h230.1184c94.24896 0 170.65984 76.41088 170.65984 170.67008V725.33504C712.39168 819.58912 635.9808 896 541.73184 896z m22.45632-676.13184a21.3504 21.3504 0 0 0-30.15168 0l-156.44672 149.90848a21.32992 21.32992 0 0 0-0.84992 30.15168c0.28672 0.29184 0.55296 0.57344 0.84992 0.84992L534.0416 550.4a21.34016 21.34016 0 0 0 28.45184-31.00672L423.38816 384.57344l140.24192-134.26176a21.34016 21.34016 0 0 0 0.82944-30.16192l-0.27136-0.2816z"  horiz-adv-x="1024" />

    
    <glyph glyph-name="xuanduobumen1" unicode="&#59262;" d="M289.568 601.28c-8.832 0-16-7.296-16-16.304v-424.16c0-9.008 7.168-16.32 16-16.32h512c8.848 0 16 7.312 16 16.32v424.16a16.16 16.16 0 0 1-16 16.32h-512zM112 395.648h113.568V584.976c0 36.048 28.656 65.264 64 65.264h512c35.36 0 64-29.216 64-65.264v-424.16c0-36.032-28.64-65.248-64-65.248h-512c-35.344 0-64 29.216-64 65.248V346.688H112V-8a24 24 0 0 0-48 0V759.6800000000001a24 24 0 0 0 48 0v-364.048z m264 94.4a24 24 0 0 1-24-24v-180.384a24 24 0 0 1 48 0V466.032a24 24 0 0 1-24 24z m112 0a24 24 0 0 1-24-24v-180.384a24 24 0 0 1 48 0V466.032a24 24 0 0 1-24 24z m112 0a24 24 0 0 1-24-24v-180.384a24 24 0 0 1 48 0V466.032a24 24 0 0 1-24 24z m112 0a24 24 0 0 1-24-24v-180.384a24 24 0 0 1 48 0V466.032a24 24 0 0 1-24 24z m189.248-229.184v48.944a10.864 10.864 0 0 1 10.752 10.96V740.096c0 6.048-4.8 10.96-10.752 10.96H387.152a10.864 10.864 0 0 1-10.752-10.96v-47.92h-48V740.096C328.4 773.184 354.704 800 387.152 800h514.08C933.712 800 960 773.184 960 740.096v-419.36c0-33.072-26.304-59.888-58.752-59.888z"  horiz-adv-x="1024" />

    
    <glyph glyph-name="xuanbumen1" unicode="&#59263;" d="M320 624a16 16 0 0 1-16-16v-448a16 16 0 0 1 16-16h560a16 16 0 0 1 16 16V608a16 16 0 0 1-16 16H320zM128 400h128V608a64 64 0 0 0 64 64h560a64 64 0 0 0 64-64v-448a64 64 0 0 0-64-64H320a64 64 0 0 0-64 64V352H128v-392a24 24 0 0 0-48 0v848a24 24 0 0 0 48 0V400z m424 96a24 24 0 0 1-24-24v-192a24 24 0 0 1 48 0v192a24 24 0 0 1-24 24z m112 0a24 24 0 0 1-24-24v-192a24 24 0 0 1 48 0v192a24 24 0 0 1-24 24z m112 0a24 24 0 0 1-24-24v-192a24 24 0 0 1 48 0v192a24 24 0 0 1-24 24z m-336 0a24 24 0 0 1-24-24v-192a24 24 0 0 1 48 0v192a24 24 0 0 1-24 24z"  horiz-adv-x="1024" />

    
    <glyph glyph-name="shanchu6" unicode="&#59879;" d="M753.2-64H64L960 832v-689.2C960 28.6 867.4-64 753.2-64z m103.4 379.1l-34.5 34.5-120.6-120.7-120.6 120.6-34.5-34.5L667 194.4 546.5 73.8l34.5-34.5L701.5 160l120.6-120.6 34.5 34.5L736 194.5l120.6 120.6z"  horiz-adv-x="1024" />

    
    <glyph glyph-name="cebianshousuo" unicode="&#58918;" d="M768-91.121248H349.315534A56.547419 56.547419 0 0 0 292.878752-34.696759V802.696759A56.547419 56.547419 0 0 0 349.315534 859.121248H768V896H349.315534A93.42617 93.42617 0 0 1 256 802.696759v-837.393518A93.42617 93.42617 0 0 1 349.315534-128H768zM465.901561 384l92.196878-53.228331v106.456662l-92.196878-53.228331z"  horiz-adv-x="1024" />

    
    <glyph glyph-name="cebianshousuo1" unicode="&#58880;" d="M256 859.121248L674.696759 859.121248A56.547419 56.547419 0 0 0 731.121248 802.696759L731.121248-34.69675900000004A56.547419 56.547419 0 0 0 674.696759-91.12124800000004l-418.696759 0L256-128 674.696759-128A93.42617 93.42617 0 0 1 767.99999999-34.69675900000004l0 837.393518A93.42617 93.42617 0 0 1 674.696759 896l-418.696759 0zM579.61104401 384l-135.22208801 78.072317L444.388956 305.927683l135.22208801 78.072317z"  horiz-adv-x="1024" />

    
    <glyph glyph-name="tianjia" unicode="&#58898;" d="M506.930693 804.752475C740.118812 804.752475 922.613861 612.118812 922.613861 389.069307S740.118812-36.752475 506.930693-36.752475 91.247525 155.881188 91.247525 389.069307 283.881188 804.752475 506.930693 804.752475M506.930693 896C233.188119 896 0 662.811881 0 389.069307s233.188119-506.930693 506.930693-506.930693 506.930693 233.188119 506.930693 506.930693-223.049505 506.930693-506.930693 506.930693zM790.811881 338.376238H223.049505c-10.138614 0-30.415842 20.277228-30.415842 50.693069s20.277228 50.693069 40.554456 50.693069h567.762376c10.138614-10.138614 30.415842-30.415842 30.415842-50.693069 0-30.415842-20.277228-50.693069-40.554456-50.693069zM466.376238 105.188119V672.950495c0 20.277228 20.277228 40.554455 50.693069 40.554455s50.693069-20.277228 50.693069-40.554455v-567.762376c-10.138614-20.277228-30.415842-40.554455-60.831683-40.554456-20.277228 0-40.554455 20.277228-40.554455 40.554456z"  horiz-adv-x="1024" />

    
    <glyph glyph-name="tianjia1" unicode="&#58987;" d="M907.776 883.712H117.76c-57.856 0-104.96-47.104-104.96-104.96v-790.016c0-57.856 47.104-104.96 104.96-104.96h790.016c57.856 0 104.96 47.104 104.96 104.96V778.752c0 57.856-47.104 104.96-104.96 104.96zM842.24 336.896H559.616V51.2c0-25.6-20.992-46.592-46.592-46.592S466.432 25.6 466.432 51.2V336.896H183.808c-25.6 0-46.592 20.992-46.592 46.592s20.992 46.592 46.592 46.592H465.92V709.632c0 25.6 20.992 46.592 46.592 46.592s46.592-20.992 46.592-46.592v-279.04h282.624c25.6 0 46.592-20.992 46.592-46.592s-20.48-47.104-46.08-47.104z"  horiz-adv-x="1024" />

    
    <glyph glyph-name="biaodan1" unicode="&#59526;" d="M875.600896 658.199552L661.799936 874.699776a76.84608 76.84608 0 0 1-14.69952 11.49952c-1.399808 0.799744-2.799616 1.599488-4.3008 2.299904-0.899072 0.499712-1.898496 0.900096-2.798592 1.30048C630.99904 893.800448 621.100032 896 611.00032 896H330.000384c-39.799808 0-73.00096-32.19968-73.00096-71.999488V768h-55.498752c-39.799808 0-72.500224-32.600064-72.500224-72.399872v-752c0-39.799808 32.700416-71.600128 72.4992-71.600128h495.000576c39.799808 0 71.499776 31.80032 71.499776 71.600128V0h56.999936C864.79872 0 896 32.19968 896 71.999488v535.5008c0 18.999296-6.99904 37.199872-20.399104 50.699264zM648.000512 785.600512l136.800256-137.601024H648.000512V785.600512z m48-841.601024h-495.0016V696.000512h56.001536v-624c0-39.800832 33.200128-72.000512 72.999936-72.000512h366.000128v-56.000512z m128 128h-495.0016V824.000512H576v-176c0-39.799808 33.200128-71.999488 72.999936-71.999488h174.999552v-504.001536zM641.000448 476.000256c0 19.899392-16.100352 35.999744-35.999744 35.999744H421.000192c-19.899392 0-35.999744-16.100352-35.999744-35.999744s16.100352-35.999744 35.999744-35.999744H604.99968c19.899392 0 35.999744 16.099328 35.999744 35.999744z m128-128c0 19.899392-16.100352 35.999744-35.999744 35.999744H421.000192c-19.899392 0-35.999744-16.100352-35.999744-35.999744s16.100352-35.999744 35.999744-35.999744H732.99968c19.899392 0 35.999744 16.099328 35.999744 35.999744z m-64-128c0 19.900416-16.100352 35.999744-35.999744 35.999744H421.000192c-19.899392 0-35.999744-16.100352-35.999744-35.999744s16.100352-35.999744 35.999744-35.999744H668.99968c19.899392 0 35.999744 16.099328 35.999744 35.999744z"  horiz-adv-x="1024" />

    
    <glyph glyph-name="shousuo" unicode="&#58952;" d="M307.2 896h477.866667v-1024H307.2a68.266667 68.266667 0 0 0-68.266667 68.266667V827.733333a68.266667 68.266667 0 0 0 68.266667 68.266667z m143.018667-341.333333L409.6 514.56 541.457067 384 409.6 253.44 450.218667 213.333333l172.714666 170.666667-172.714666 170.666667z"  horiz-adv-x="1024" />

    
    <glyph glyph-name="zhankai3" unicode="&#58953;" d="M307.2 896h477.866667v-1024H307.2a68.266667 68.266667 0 0 0-68.266667 68.266667V827.733333a68.266667 68.266667 0 0 0 68.266667 68.266667z m313.173333-381.44L580.266667 554.666667l-170.666667-170.666667 170.666667-170.666667 40.106666 40.106667L490.0864 384l130.286933 130.56z"  horiz-adv-x="1024" />

    
    <glyph glyph-name="zhankaifenzu" unicode="&#59027;" d="M958.37297778 447.83691852H256.53096297c-25.60758518 0-47.21019259-16.74808889-54.7346963-39.92841482l-134.71288889-247.45908148V735.10305185H354.22814815c0-63.47282963 51.4578963-114.80936297 114.80936296-114.80936296h262.38672592V505.36296297h57.40468149v114.80936295c0 31.67573333-25.72894815 57.40468148-57.40468149 57.40468149H469.03751111c-31.67573333 0-57.40468148 25.72894815-57.40468148 57.40468148 0 31.67573333-25.60758518 57.40468148-57.40468148 57.40468148H66.96201482c-31.67573333 0-57.40468148-25.72894815-57.40468149-57.40468148v-689.34162964c0-31.67573333 25.72894815-57.40468148 57.40468149-57.40468147h664.46222221c25.60758518 0 47.21019259 16.74808889 54.7346963 39.92841481h0.12136297l229.376 362.26844444c0 31.67573333-25.60758518 57.40468148-57.28331852 57.40468149zM734.45831111 45.761422219999986h-667.49629629l186.53487407 344.67081481h704.75472593l-223.79330371-344.67081481z m0 0"  horiz-adv-x="1024" />

    
    <glyph glyph-name="biaodan2" unicode="&#59637;" d="M827.369202 717.61742L718.479836 826.506786 649.886535 895.100088 648.986622 896H196.630798c-37.996289 0-68.593301-30.697002-68.593302-68.593301v-886.813398c0-37.896299 30.597012-68.593301 68.593302-68.593301h630.838394c37.796309 0 68.593301 30.597012 68.593302 68.593301V649.024119l-68.693292 68.593301z m-1.799824-95.090714H623.389122V824.706962l202.180256-202.180256z m1.799824-681.833414H196.630798V827.406699h358.265013v-273.473294h272.573381v-613.240113zM271.723465 382.350161h205.679914c18.998145 0 34.296651 15.298506 34.29665 34.296651s-15.298506 34.296651-34.29665 34.296651H271.723465c-18.998145 0-34.296651-15.298506-34.296651-34.296651s15.398496-34.296651 34.296651-34.296651zM271.423494 243.163754h481.053022c18.998145 0 34.296651 15.298506 34.296651 34.29665 0 18.998145-15.298506 34.296651-34.296651 34.296651H271.423494c-18.998145 0-34.296651-15.298506-34.296651-34.296651 0-18.998145 15.398496-34.296651 34.296651-34.29665zM752.576506 172.670638H271.423494c-18.998145 0-34.296651-15.298506-34.296651-34.296651 0-18.998145 15.298506-34.296651 34.296651-34.296651h481.053022c18.998145 0 34.296651 15.298506 34.296651 34.296651 0.09999 18.998145-15.298506 34.296651-34.196661 34.296651z"  horiz-adv-x="1024" />

    
    <glyph glyph-name="wenjianjiashousuo" unicode="&#59094;" d="M197.485714 581.485714v-585.142857h841.142857v585.142857H197.485714zM146.285714 588.8V603.428571c0 21.942857 14.628571 29.257143 43.885715 29.257143h782.628571v29.257143c0 21.942857-7.314286 29.257143-29.257143 29.257143H512c-36.571429 0-73.142857 14.628571-95.085714 51.2-7.314286 14.628571-29.257143 21.942857-43.885715 21.942857h-219.428571c-21.942857 0-29.257143-7.314286-29.257143-29.257143v-709.485714c0-14.628571 7.314286-29.257143 21.942857-29.257143V588.8z m899.657143 43.885714c36.571429 0 51.2-14.628571 51.2-43.885714v-563.2c0-21.942857-7.314286-43.885714-21.942857-58.514286s-36.571429-21.942857-58.514286-21.942857H153.6c-21.942857 0-43.885714 7.314286-58.514286 21.942857s-21.942857 36.571429-21.942857 58.514286V742.4c0 21.942857 7.314286 43.885714 21.942857 58.514286s36.571429 21.942857 58.514286 21.942857h219.428571c36.571429 0 73.142857-14.628571 95.085715-51.2 7.314286-14.628571 21.942857-21.942857 43.885714-21.942857h431.542857c21.942857 0 43.885714-7.314286 58.514286-21.942857 14.628571-21.942857 21.942857-36.571429 21.942857-65.828572v-29.257143h21.942857z"  horiz-adv-x="1170" />

    
    <glyph glyph-name="tianjia2" unicode="&#58899;" d="M512 896a512 512 0 1 1 512-512A512 512 0 0 1 512 896z m225.28-552.96H552.96v-184.32a40.96 40.96 0 0 0-81.92 0V343.04H286.72a40.96 40.96 0 0 0 0 81.92h184.32V609.28a40.96 40.96 0 0 0 81.92 0v-184.32h184.32a40.96 40.96 0 0 0 0-81.92z"  horiz-adv-x="1024" />

    


  </font>
</defs>
</svg>
